<?xml version="1.0" encoding="utf-8"?>
<!-- Svg Vector Icons : http://www.onlinewebfonts.com/icon -->
<!DOCTYPE svg PUBLIC "-//W3C//DTD SVG 1.1//EN" "http://www.w3.org/Graphics/SVG/1.1/DTD/svg11.dtd">
<svg version="1.1" xmlns="http://www.w3.org/2000/svg" xmlns:xlink="http://www.w3.org/1999/xlink" x="0px" y="0px" viewBox="0 0 1000 1000" enable-background="new 0 0 1000 1000" xml:space="preserve">
<metadata> Svg Vector Icons : http://www.onlinewebfonts.com/icon </metadata>
<g><path d="M500,10C229.4,10,10,229.4,10,500c0,270.6,219.4,490,490,490s490-219.4,490-490C990,229.4,770.6,10,500,10z M634.7,531.5l127.2,127.2c17.8,17.8,17.8,47.1,0,65L725.7,760c-17.8,17.8-47,17.8-65,0L533.6,632.9c-17.8-17.8-47.1-17.8-65,0L341.4,760c-17.8,17.8-47.1,17.8-65,0l-36.3-36.3c-17.8-17.8-17.8-47.1,0-65l127.2-127.2c17.8-17.8,17.8-47.1,0-65L240.2,339.4c-17.8-17.8-17.8-47.1,0-65l36.3-36.3c17.8-17.8,47.1-17.8,65,0l127.2,127.2c17.8,17.8,47.1,17.8,65,0l127.1-127.2c17.9-17.8,47.1-17.8,65,0l36.3,36.3c17.8,17.8,17.8,47.1,0,65L634.8,466.5C616.8,484.4,616.8,513.7,634.7,531.5L634.7,531.5z"/></g>
</svg>